# xmcd
#
# Track frame offsets: 
#        150
#        35505
#        59669
#        90160
#        106616
#        149317
#        168663
#        192839
#        211345
#        231953
#        255205
#
# Disc length: 3707 seconds
#
# Revision: 0
# Processed by: cddbd v1.5.2PL0 Copyright (c) Steve Scherf et al.
# Submitted via: ExactAudioCopy v1.2
#
DISCID=8d0e790b
DTITLE=Eric Clapton - Back to Budokan [3rd Night, 16th April 2016] (Di
DTITLE=sc 1)
DYEAR=2016
DGENRE=Blues
TTITLE0=Somebody's Knocking
TTITLE1=Key To The Highway
TTITLE2=Hoochie Coochie Man
TTITLE3=Next Time You See Me
TTITLE4=I Shot The Sheriff
TTITLE5=Circus
TTITLE6=Nobody Knows You When You're Down And Out
TTITLE7=I Dreamed I Saw St. Augustine
TTITLE8=I Will Be There
TTITLE9=Cypress Grove
TTITLE10=Sunshine State
EXTD=
EXTT0=
EXTT1=
EXTT2=
EXTT3=
EXTT4=
EXTT5=
EXTT6=
EXTT7=
EXTT8=
EXTT9=
EXTT10=
PLAYORDER=
